{"asset":{"generator":"3D Builder","version":"2.0"},"scene":0,"scenes":[{"nodes":[0,1,2,3,4,5,6,7,8,9,10,11,12]}],"nodes":[{"mesh":0,"matrix":[1,0,0,0,0,-1.1920928955078125E-7,-0.99999988079071045,0,0,0.99999988079071045,-1.1920928955078125E-7,0,8.7882232037372887E-5,-1.0414227813448917E-10,-0.00087378371972590685,1]},{"mesh":1,"matrix":[1,0,0,0,0,-1.1920928955078125E-7,-0.99999988079071045,0,0,0.99999988079071045,-1.1920928955078125E-7,0,8.7882232037372887E-5,-1.0414227813448917E-10,-0.00087378371972590685,1]},{"mesh":2,"matrix":[1,0,0,0,0,-1.1920928955078125E-7,-0.99999988079071045,0,0,0.99999988079071045,-1.1920928955078125E-7,0,8.7882232037372887E-5,-1.0414227813448917E-10,-0.00087378371972590685,1]},{"mesh":3,"matrix":[1,0,0,0,0,-1.1920928955078125E-7,-0.99999988079071045,0,0,0.99999988079071045,-1.1920928955078125E-7,0,8.7882232037372887E-5,-1.0414227813448917E-10,-0.00087378371972590685,1]},{"mesh":4,"matrix":[1,0,0,0,0,-1.1920928955078125E-7,-0.99999988079071045,0,0,0.99999988079071045,-1.1920928955078125E-7,0,8.7882232037372887E-5,-1.0414227813448917E-10,-0.00087378371972590685,1]},{"mesh":5,"matrix":[1,0,0,0,0,-1.1920928955078125E-7,-0.99999988079071045,0,0,0.99999988079071045,-1.1920928955078125E-7,0,8.7882232037372887E-5,-1.0414227813448917E-10,-0.00087378371972590685,1]},{"mesh":6,"matrix":[1,0,0,0,0,-1.1920928955078125E-7,-0.99999988079071045,0,0,0.99999988079071045,-1.1920928955078125E-7,0,8.7882232037372887E-5,-1.0414227813448917E-10,-0.00087378371972590685,1]},{"mesh":7,"matrix":[1,0,0,0,0,-1.1920928955078125E-7,-0.99999988079071045,0,0,0.99999988079071045,-1.1920928955078125E-7,0,8.7882232037372887E-5,-1.0414227813448917E-10,-0.00087378371972590685,1]},{"mesh":8,"matrix":[1,0,0,0,0,-1.1920928955078125E-7,-0.99999988079071045,0,0,0.99999988079071045,-1.1920928955078125E-7,0,8.7882232037372887E-5,-1.0414227813448917E-10,-0.00087378371972590685,1]},{"mesh":9,"matrix":[1,0,0,0,0,-1.1920928955078125E-7,-0.99999988079071045,0,0,0.99999988079071045,-1.1920928955078125E-7,0,8.7882232037372887E-5,-1.0414227813448917E-10,-0.00087378371972590685,1]},{"mesh":10,"matrix":[1,0,0,0,0,-1.1920928955078125E-7,-0.99999988079071045,0,0,0.99999988079071045,-1.1920928955078125E-7,0,8.7882232037372887E-5,-1.0414227813448917E-10,-0.00087378371972590685,1]},{"mesh":11,"matrix":[1,0,0,0,0,-1.1920928955078125E-7,-0.99999988079071045,0,0,0.99999988079071045,-1.1920928955078125E-7,0,8.7882232037372887E-5,-1.0414227813448917E-10,-0.00087378371972590685,1]},{"mesh":12,"matrix":[1,0,0,0,0,-1.1920928955078125E-7,-0.99999988079071045,0,0,0.99999988079071045,-1.1920928955078125E-7,0,8.7882232037372887E-5,-1.0414227813448917E-10,-0.00087378371972590685,1]}],"meshes":[{"primitives":[{"attributes":{"POSITION":0,"COLOR_0":1},"mode":4,"indices":2}]},{"primitives":[{"attributes":{"POSITION":3,"COLOR_0":4},"mode":4,"indices":5}]},{"primitives":[{"attributes":{"POSITION":6,"COLOR_0":7},"mode":4,"indices":8}]},{"primitives":[{"attributes":{"POSITION":9,"COLOR_0":10},"mode":4,"indices":11}]},{"primitives":[{"attributes":{"POSITION":12,"COLOR_0":13},"mode":4,"indices":14}]},{"primitives":[{"attributes":{"POSITION":15,"COLOR_0":16},"mode":4,"indices":17}]},{"primitives":[{"attributes":{"POSITION":18,"COLOR_0":19},"mode":4,"indices":20}]},{"primitives":[{"attributes":{"POSITION":21,"COLOR_0":22},"mode":4,"indices":23}]},{"primitives":[{"attributes":{"POSITION":24,"COLOR_0":25},"mode":4,"indices":26}]},{"primitives":[{"attributes":{"POSITION":27,"COLOR_0":28},"mode":4,"indices":29}]},{"primitives":[{"attributes":{"POSITION":30,"COLOR_0":31},"mode":4,"indices":32}]},{"primitives":[{"attributes":{"POSITION":33,"COLOR_0":34},"mode":4,"indices":35}]},{"primitives":[{"attributes":{"POSITION":36,"COLOR_0":37},"mode":4,"indices":38}]}],"accessors":[{"bufferView":0,"byteOffset":0,"count":28,"componentType":5126,"type":"VEC3","min":[-1.8795009851455688,-1.0534172058105469,1.8690855503082275],"max":[-1.5135009288787842,0.54858219623565674,2.7190854549407959]},{"bufferView":1,"byteOffset":0,"count":28,"componentType":5121,"type":"VEC4","normalized":true},{"bufferView":2,"byteOffset":0,"count":84,"componentType":5125,"type":"SCALAR"},{"bufferView":3,"byteOffset":0,"count":146,"componentType":5126,"type":"VEC3","min":[1.3936480283737183,2.1558845043182373,1.3690437299374025E-6],"max":[1.931475043296814,3.5006046295166016,1.3654652833938599]},{"bufferView":4,"byteOffset":0,"count":146,"componentType":5121,"type":"VEC4","normalized":true},{"bufferView":5,"byteOffset":0,"count":864,"componentType":5125,"type":"SCALAR"},{"bufferView":6,"byteOffset":0,"count":146,"componentType":5126,"type":"VEC3","min":[-1.931475043296814,-3.587810754776001,-2.0872192862952943E-14],"max":[-1.3936480283737183,-2.2430908679962158,1.3654639720916748]},{"bufferView":7,"byteOffset":0,"count":146,"componentType":5121,"type":"VEC4","normalized":true},{"bufferView":8,"byteOffset":0,"count":864,"componentType":5125,"type":"SCALAR"},{"bufferView":9,"byteOffset":0,"count":22,"componentType":5126,"type":"VEC3","min":[-1.4925010204315186,0.38537082076072693,3.0282740592956543],"max":[-0.42250096797943115,0.78337043523788452,3.2402739524841309]},{"bufferView":10,"byteOffset":0,"count":22,"componentType":5121,"type":"VEC4","normalized":true},{"bufferView":11,"byteOffset":0,"count":108,"componentType":5125,"type":"SCALAR"},{"bufferView":12,"byteOffset":0,"count":146,"componentType":5126,"type":"VEC3","min":[-1.931475043296814,2.1558845043182373,1.3690437299374025E-6],"max":[-1.3936480283737183,3.5006046295166016,1.3654652833938599]},{"bufferView":13,"byteOffset":0,"count":146,"componentType":5121,"type":"VEC4","normalized":true},{"bufferView":14,"byteOffset":0,"count":864,"componentType":5125,"type":"SCALAR"},{"bufferView":15,"byteOffset":0,"count":146,"componentType":5126,"type":"VEC3","min":[1.3936480283737183,-3.587810754776001,-2.0872192862952943E-14],"max":[1.931475043296814,-2.2430908679962158,1.3654639720916748]},{"bufferView":16,"byteOffset":0,"count":146,"componentType":5121,"type":"VEC4","normalized":true},{"bufferView":17,"byteOffset":0,"count":864,"componentType":5125,"type":"SCALAR"},{"bufferView":18,"byteOffset":0,"count":27,"componentType":5126,"type":"VEC3","min":[-1.6375008821487427,-1.9214169979095459,2.0150854587554932],"max":[1.6364991664886475,-0.63941740989685059,2.7930855751037598]},{"bufferView":19,"byteOffset":0,"count":27,"componentType":5121,"type":"VEC4","normalized":true},{"bufferView":20,"byteOffset":0,"count":96,"componentType":5125,"type":"SCALAR"},{"bufferView":21,"byteOffset":0,"count":40,"componentType":5126,"type":"VEC3","min":[-1.49350106716156,2.2325823307037354,2.0730855464935303],"max":[1.4924992322921753,3.4045817852020264,2.76308536529541]},{"bufferView":22,"byteOffset":0,"count":40,"componentType":5121,"type":"VEC4","normalized":true},{"bufferView":23,"byteOffset":0,"count":144,"componentType":5125,"type":"SCALAR"},{"bufferView":24,"byteOffset":0,"count":20,"componentType":5126,"type":"VEC3","min":[1.512499213218689,-1.0534172058105469,1.8690855503082275],"max":[1.8784991502761841,0.54858219623565674,2.7190854549407959]},{"bufferView":25,"byteOffset":0,"count":20,"componentType":5121,"type":"VEC4","normalized":true},{"bufferView":26,"byteOffset":0,"count":66,"componentType":5125,"type":"SCALAR"},{"bufferView":27,"byteOffset":0,"count":23,"componentType":5126,"type":"VEC3","min":[0.413499116897583,0.38537082076072693,3.0282740592956543],"max":[1.4854991436004639,0.78337043523788452,3.2402739524841309]},{"bufferView":28,"byteOffset":0,"count":23,"componentType":5121,"type":"VEC4","normalized":true},{"bufferView":29,"byteOffset":0,"count":108,"componentType":5125,"type":"SCALAR"},{"bufferView":30,"byteOffset":0,"count":20,"componentType":5126,"type":"VEC3","min":[-0.58450096845626831,-4.7606282234191895,1.3062744140625],"max":[-0.29250097274780273,-4.6566281318664551,1.4902745485305786]},{"bufferView":31,"byteOffset":0,"count":20,"componentType":5121,"type":"VEC4","normalized":true},{"bufferView":32,"byteOffset":0,"count":84,"componentType":5125,"type":"SCALAR"},{"bufferView":33,"byteOffset":0,"count":21,"componentType":5126,"type":"VEC3","min":[0.28949904441833496,-4.7606282234191895,1.3062744140625],"max":[0.58149909973144531,-4.6566281318664551,1.4902745485305786]},{"bufferView":34,"byteOffset":0,"count":21,"componentType":5121,"type":"VEC4","normalized":true},{"bufferView":35,"byteOffset":0,"count":84,"componentType":5125,"type":"SCALAR"},{"bufferView":36,"byteOffset":0,"count":992,"componentType":5126,"type":"VEC3","min":[-2.219088077545166,-5.0758724212646484,0.44580546021461487],"max":[2.2189121246337891,5.074124813079834,3.241804838180542]},{"bufferView":37,"byteOffset":0,"count":992,"componentType":5121,"type":"VEC4","normalized":true},{"bufferView":38,"byteOffset":0,"count":5928,"componentType":5125,"type":"SCALAR"}],"bufferViews":[{"buffer":0,"byteOffset":0,"byteLength":336,"byteStride":12,"target":34962},{"buffer":0,"byteOffset":336,"byteLength":112,"byteStride":4,"target":34962},{"buffer":0,"byteOffset":448,"byteLength":336,"target":34963},{"buffer":0,"byteOffset":784,"byteLength":1752,"byteStride":12,"target":34962},{"buffer":0,"byteOffset":2536,"byteLength":584,"byteStride":4,"target":34962},{"buffer":0,"byteOffset":3120,"byteLength":3456,"target":34963},{"buffer":0,"byteOffset":6576,"byteLength":1752,"byteStride":12,"target":34962},{"buffer":0,"byteOffset":8328,"byteLength":584,"byteStride":4,"target":34962},{"buffer":0,"byteOffset":8912,"byteLength":3456,"target":34963},{"buffer":0,"byteOffset":12368,"byteLength":264,"byteStride":12,"target":34962},{"buffer":0,"byteOffset":12632,"byteLength":88,"byteStride":4,"target":34962},{"buffer":0,"byteOffset":12720,"byteLength":432,"target":34963},{"buffer":0,"byteOffset":13152,"byteLength":1752,"byteStride":12,"target":34962},{"buffer":0,"byteOffset":14904,"byteLength":584,"byteStride":4,"target":34962},{"buffer":0,"byteOffset":15488,"byteLength":3456,"target":34963},{"buffer":0,"byteOffset":18944,"byteLength":1752,"byteStride":12,"target":34962},{"buffer":0,"byteOffset":20696,"byteLength":584,"byteStride":4,"target":34962},{"buffer":0,"byteOffset":21280,"byteLength":3456,"target":34963},{"buffer":0,"byteOffset":24736,"byteLength":324,"byteStride":12,"target":34962},{"buffer":0,"byteOffset":25060,"byteLength":108,"byteStride":4,"target":34962},{"buffer":0,"byteOffset":25168,"byteLength":384,"target":34963},{"buffer":0,"byteOffset":25552,"byteLength":480,"byteStride":12,"target":34962},{"buffer":0,"byteOffset":26032,"byteLength":160,"byteStride":4,"target":34962},{"buffer":0,"byteOffset":26192,"byteLength":576,"target":34963},{"buffer":0,"byteOffset":26768,"byteLength":240,"byteStride":12,"target":34962},{"buffer":0,"byteOffset":27008,"byteLength":80,"byteStride":4,"target":34962},{"buffer":0,"byteOffset":27088,"byteLength":264,"target":34963},{"buffer":0,"byteOffset":27352,"byteLength":276,"byteStride":12,"target":34962},{"buffer":0,"byteOffset":27628,"byteLength":92,"byteStride":4,"target":34962},{"buffer":0,"byteOffset":27720,"byteLength":432,"target":34963},{"buffer":0,"byteOffset":28152,"byteLength":240,"byteStride":12,"target":34962},{"buffer":0,"byteOffset":28392,"byteLength":80,"byteStride":4,"target":34962},{"buffer":0,"byteOffset":28472,"byteLength":336,"target":34963},{"buffer":0,"byteOffset":28808,"byteLength":252,"byteStride":12,"target":34962},{"buffer":0,"byteOffset":29060,"byteLength":84,"byteStride":4,"target":34962},{"buffer":0,"byteOffset":29144,"byteLength":336,"target":34963},{"buffer":0,"byteOffset":29480,"byteLength":11904,"byteStride":12,"target":34962},{"buffer":0,"byteOffset":41384,"byteLength":3968,"byteStride":4,"target":34962},{"buffer":0,"byteOffset":45352,"byteLength":23712,"target":34963}],"buffers":[{"byteLength":69064,"uri":"car2.bin"}]}