<?xml version="1.0" standalone="no"?>
<!DOCTYPE svg PUBLIC "-//W3C//DTD SVG 1.1//EN" "http://www.w3.org/Graphics/SVG/1.1/DTD/svg11.dtd" >

<svg>
<metadata>
Created by webfont
</metadata>
<defs>

<font id="iconfont" horiz-adv-x="1288" vert-adv-y="1288" >
  <font-face
    
    font-family="iconfont"
    
    font-weight="400"
    
    font-stretch="normal"
    
    units-per-em="1000"
    
    ascent="1104"
    
    descent="-285"
    
  />
    <missing-glyph />
    
    <glyph glyph-name="uni21" unicode="&#x21;" d="M145 202L130 694L228 694L213 202L145 202M178-6Q142-6 128.50 6Q115 18 115 57Q115 96 128.50 108Q142 120 178 120Q214 120 228 108Q242 96 242 57Q242 18 228.50 6Q215-6 178-6Z"  horiz-adv-x="361" vert-adv-y="1000"  />

    
    <glyph glyph-name="uni3b" unicode="&#x3b;" d="M239.50 432Q239.50 432 232.75 426Q226 420 189 420Q152 420 138.50 431.50Q125 443 125 483Q125 523 138.50 534.50Q152 546 189 546Q226 546 239.50 534Q253 522 253 483Q253 444 239.50 432M66-136Q107-71 133.50 0.50Q160 72 160 127L242 127Q242 67 209.50-7Q177-81 136-136L66-136Z"  horiz-adv-x="378" vert-adv-y="1000"  />

    
    <glyph glyph-name="uni4E0D" unicode="&#x4E0D;" d="M594 661Q542 565 480 479L531 476L531-100L454-100L454 444Q312 261 103 109L47 172Q347 375 503 661L99 661L99 737L889 737L889 661L594 661M620 463Q823 303 929 182L873 114Q816 183 726.50 269Q637 355 570 407L620 463Z"  horiz-adv-x="984" vert-adv-y="1000"  />

    
    <glyph glyph-name="uni4F24" unicode="&#x4F24;" d="M524 676L934 676L934 603L483 603Q429 514 368 440L307 483Q430 623 502 808L578 793Q559 744 524 676M343 777Q302 663 252 561L252-99L181-99L181 433Q140 367 85 296L26 344Q98 432 164.50 553.50Q231 675 271 797L343 777M591 545Q588 450 585 411L873 411Q869 286 855 54Q850-18 816-44Q782-70 683-76L616-80L591-5L679-1Q744 2 759 16.50Q774 31 779 86Q788 194 792 341L581 341Q568 181 520 91Q472 1 331-108L275-52Q406 43 450 120.50Q494 198 506 341L331 341L331 411L511 411Q512 438 513.50 490Q515 542 515 548L591 545Z"  horiz-adv-x="984" vert-adv-y="1000"  />

    
    <glyph glyph-name="uni4F53" unicode="&#x4F53;" d="M677 559Q735 418 805 316.50Q875 215 972 134L919 70Q813 169 747.50 276Q682 383 631 523L631 144L805 144L805 75L631 75L631-100L555-100L555 75L387 75L389 144L555 144L555 510Q484 287 292 79L236 133L236-92L163-92L163 413Q123 344 76 283L20 333Q182 552 248 798L319 776Q284 658 236 554L236 135Q434 330 512 559L314 559L314 630L555 630L555 800L631 797L631 630L902 630L902 559L677 559Z"  horiz-adv-x="984" vert-adv-y="1000"  />

    
    <glyph glyph-name="uni53BB" unicode="&#x53BB;" d="M497 301Q451 235 383.50 155Q316 75 265 28Q352 30 720 45Q634 153 571 212L626 258Q679 208 760.50 110.50Q842 13 883-49L827-105Q802-63 773-24Q383-35 251-45Q193-49 142-58L118 18Q157 28 186 49Q228 87 293 162.50Q358 238 403 301L53 301L53 375L453 375L453 577L121 577L121 648L453 648L453 810L527 808L527 648L860 648L860 577L527 577L527 375L928 375L928 301L497 301Z"  horiz-adv-x="984" vert-adv-y="1000"  />

    
    <glyph glyph-name="uni5728" unicode="&#x5728;" d="M392 613Q340 496 267 397L267-97L193-97L193 304Q140 244 72 182L20 241Q202 391 310 613L59 613L59 685L343 685Q371 751 390 818L462 800Q445 742 423 685L909 685L909 613L392 613M639 42L918 42L918-29L299-29L299 42L564 42L564 301L341 301L341 373L564 373L564 541L639 538L639 373L872 373L872 301L639 301L639 42Z"  horiz-adv-x="984" vert-adv-y="1000"  />

    
    <glyph glyph-name="uni5802" unicode="&#x5802;" d="M172 559L172 419L100 419L100 626L285 626Q242 691 178 746L228 792Q253 772 289 733Q325 694 345 667L307 626L456 626L456 803L530 801L530 626L681 626L637 663Q665 688 700.50 727Q736 766 756 795L807 753Q761 687 695 626L885 626L885 419L813 419L813 559L172 559M531-10L918-10L918-74L66-74L66-10L457-10L457 93L156 93L156 158L457 158L457 249L215 249L215 468L771 468L771 249L531 249L531 158L829 158L829 93L531 93L531-10M285 407L285 312L698 312L698 407L285 407Z"  horiz-adv-x="984" vert-adv-y="1000"  />

    
    <glyph glyph-name="uni5904" unicode="&#x5904;" d="M721 10Q844 7 941 12L925-68Q829-74 706-70Q571-66 473-30.50Q375 5 302 90Q224-6 102-103L43-49Q175 53 256 154Q199 246 159 387Q125 324 94 275L35 315Q169 506 228 795L301 786Q283 707 264 645L506 645L506 567Q467 325 350 154Q414 78 504 46Q594 14 721 10M680 789L680 50L602 50L602 792L680 789M206 485Q244 320 303 219Q401 369 434 569L239 569Q224 526 206 485M895 306Q795 415 691 474L726 533Q840 466 928 387L895 306Z"  horiz-adv-x="984" vert-adv-y="1000"  />

    
    <glyph glyph-name="uni5929" unicode="&#x5929;" d="M534 372Q575 237 672.50 140.50Q770 44 936-30L889-107Q724-22 631 66.50Q538 155 494 273Q407 54 96-103L45-33Q400 134 442 372L73 372L73 446L448 446L448 660L126 660L126 732L852 732L852 660L527 660L527 446L905 446L905 372L534 372Z"  horiz-adv-x="984" vert-adv-y="1000"  />

    
    <glyph glyph-name="uni5973" unicode="&#x5973;" d="M937 518L766 518Q737 388 699.50 300.50Q662 213 603 149Q780 53 892-25L851-104Q743-18 540 92Q408-8 92-101L57-21Q335 53 458 136Q305 215 195 258Q251 374 302 518L54 518L54 594L328 594Q367 718 388 814L469 796Q446 695 413 594L937 594L937 518M526 190Q586 247 623 324.50Q660 402 687 518L388 518Q345 394 298 293Q383 262 526 190Z"  horiz-adv-x="984" vert-adv-y="1000"  />

    
    <glyph glyph-name="uni597D" unicode="&#x597D;" d="M330 166Q412 97 463 44L411-28Q369 23 289 96Q227 9 96-98L39-43Q175 61 233 146Q146 219 100 252Q138 406 160 550L58 550L58 625L171 625Q182 702 190 806L262 800Q252 697 243 625L422 625L422 554Q392 288 330 166M939 391L939 317L714 317L714 32Q714-35 686-60Q658-85 577-89L524-93L500-15L564-11Q611-8 625 5.50Q639 19 639 60L639 317L425 317L425 391L639 391L639 510Q721 575 801 661L466 661L466 736L897 736L897 662Q798 550 714 483L714 391L939 391M178 285Q214 261 273 214Q327 325 355 550L232 550Q213 427 178 285Z"  horiz-adv-x="984" vert-adv-y="1000"  />

    
    <glyph glyph-name="uni5BD2" unicode="&#x5BD2;" d="M169 652L169 567L100 567L100 712L465 712Q452 760 433 802L514 813Q534 766 550 712L884 712L884 571L815 571L815 652L169 652M682 240Q728 189 798 142.50Q868 96 948 68L916 6Q716 86 597 240L386 240Q271 85 64-6L35 56Q205 127 302 240L70 240L70 300L327 300L327 367L156 367L156 425L327 425L327 491L145 491L145 549L327 549L327 627L394 624L394 549L587 549L587 627L653 624L653 549L836 549L836 491L653 491L653 425L826 425L826 367L653 367L653 300L913 300L913 240L682 240M394 491L394 425L587 425L587 491L394 491M394 367L394 300L587 300L587 367L394 367M386 182Q491 165 641 129L628 65Q487 109 374 121L386 182M271-11L283 54Q507 20 706-31L693-99Q606-76 475-48Q344-20 271-11Z"  horiz-adv-x="984" vert-adv-y="1000"  />

    
    <glyph glyph-name="uni6076" unicode="&#x6076;" d="M912 372L912 306L73 306L73 372L355 372L355 683L119 683L119 751L870 751L870 683L629 683L629 372L912 372M427 683L427 372L556 372L556 683L427 683M182 652Q259 554 309 458L254 413Q196 527 127 613L182 652M726 416L667 454Q698 490 736 548Q774 606 794 647L851 611Q831 570 792 508.50Q753 447 726 416M551 70Q507 159 436 244L484 280Q577 166 601 122L551 70M643 29Q651 59 656 114L726 84Q715 12 703-27Q695-54 667-67Q639-80 582-82Q492-85 401-82Q343-80 318-55.50Q293-31 293 34L293 244L365 240L365 58Q365 20 377.50 6Q390-8 425-10Q501-15 576-10Q610-8 624.50 1Q639 10 643 29M773 242Q861 135 936 11L880-39Q821 77 722 203L773 242M49-13Q126 80 184 226L243 200Q185 53 109-51L49-13Z"  horiz-adv-x="984" vert-adv-y="1000"  />

    
    <glyph glyph-name="uni60F3" unicode="&#x60F3;" d="M375 374Q334 429 281 478L281 232L211 232L211 514Q158 412 70 315L28 369Q140 481 197 605L76 605L76 670L211 670L211 799L281 797L281 670L402 670L402 605L281 605L281 511L304 537Q371 485 417 432L375 374M855 750L855 258L437 258L437 750L855 750M783 690L508 690L508 605L783 605L783 690M783 547L508 547L508 463L783 463L783 547M508 318L783 318L783 405L508 405L508 318M548 52Q531 86 497.50 136Q464 186 441 212L492 250Q515 227 550.50 180Q586 133 604 103L548 52M798 210Q827 173 869 103Q911 33 932-11L870-57Q849-5 809.50 67Q770 139 741 175L798 210M58-24Q117 68 164 205L230 185Q168 22 121-58L58-24M645 23Q651 46 660 104L730 75Q720 14 708-28Q700-56 677.50-67.50Q655-79 595-82Q500-87 405-82Q344-79 319.50-57Q295-35 295 19L295 204L366 201L366 46Q366 10 378-1.50Q390-13 427-15Q502-19 576-15Q611-13 625.50-5Q640 3 645 23Z"  horiz-adv-x="984" vert-adv-y="1000"  />

    
    <glyph glyph-name="uni6212" unicode="&#x6212;" d="M857 155L921 120Q904 32 886-19Q861-90 796-90Q760-90 730.50-66Q701-42 670 20Q657 46 642 81Q585 10 500-67L453-14Q552 76 613 158Q562 320 540 581L72 581L72 650L535 650L524 813L597 812L608 650L766 650Q726 719 676 776L724 813Q795 737 828 678L795 650L911 650L911 581L613 581Q629 378 666 235Q733 348 785 514L855 495Q783 282 692 149Q712 91 737 48Q770-9 794-9Q809-9 818 2.50Q827 14 836 45Q849 88 857 155M542 263L441 263L441-66L371-66L371 263L251 263Q247 141 217.50 63Q188-15 113-105L53-58Q126 25 152 89Q178 153 182 263L46 263L46 331L183 331L183 525L252 523L252 331L371 331L371 526L441 524L441 331L542 331L542 263Z"  horiz-adv-x="984" vert-adv-y="1000"  />

    
    <glyph glyph-name="uni635E" unicode="&#x635E;" d="M779 693L943 693L943 628L779 628L779 543L710 543L710 628L560 628L560 543L491 543L491 628L355 628L355 693L491 693L491 803L560 801L560 693L710 693L710 803L779 801L779 693M335 338Q308 326 243 301L243 19Q243-41 221.50-61.50Q200-82 133-87L89-91L67-20L116-16Q152-14 163.50-3Q175 8 175 40L175 276Q94 248 48 236L33 310Q85 323 175 355L175 546L60 546L60 616L175 616L175 800L243 798L243 616L343 616L343 546L243 546L243 379Q298 400 323 411L329 370L335 338M362 317L362 501L913 501L913 317L842 317L842 436L433 436L433 317L362 317M611 390Q611 373 603 285L855 285Q839 55 837 43Q833-20 800.50-44Q768-68 682-73L625-76L601-6L673-2Q727 1 744.50 15Q762 29 767 71Q773 124 778 218L596 218Q583 118 520 37Q457-44 325-109L285-45Q402 13 454.50 72.50Q507 132 524 218L368 218L368 285L533 285Q536 334 540 395L611 390Z"  horiz-adv-x="984" vert-adv-y="1000"  />

    
    <glyph glyph-name="uni662F" unicode="&#x662F;" d="M780 758L780 415L180 415L180 758L780 758M705 697L255 697L255 618L705 618L705 697M255 476L705 476L705 556L255 556L255 476M549-11Q740-19 933-8L915-75Q721-83 551-76Q436-71 364-41.50Q292-12 240 59Q195-35 104-113L43-65Q121 0 162 70.50Q203 141 224 240L298 230Q285 174 270 130Q337 25 456 0L456 276L68 276L68 339L904 339L904 276L530 276L530 172L833 172L833 111L530 111L530-10Q533-10 539.50-10.50Q546-11 549-11Z"  horiz-adv-x="984" vert-adv-y="1000"  />

    
    <glyph glyph-name="uni6700" unicode="&#x6700;" d="M795 769L795 492L191 492L191 769L795 769M724 711L262 711L262 657L724 657L724 711M262 550L724 550L724 605L262 605L262 550M43 439L942 439L942 380L465 380L465 69Q475 71 494 74.50Q513 78 522 80L524 48L526 20Q489 13 465 9L465-103L397-103L397-2Q342-10 234-25Q126-40 73-48L62 15Q76 17 107.50 20.50Q139 24 155 26L155 380L43 380L43 439M397 308L397 380L224 380L224 308L397 308M860 264Q806 145 735 64Q806 6 928-38L894-96Q767-44 691 20Q618-47 521-93L486-37Q582 4 648 62Q588 126 536 235L591 260Q641 159 692 104Q752 173 790 264L506 264L506 321L860 321L860 264M397 182L397 255L224 255L224 182L397 182M224 34Q336 47 397 58L397 129L224 129L224 34Z"  horiz-adv-x="984" vert-adv-y="1000"  />

    
    <glyph glyph-name="uni6C34" unicode="&#x6C34;" d="M650 385Q758 200 953 59L895-4Q753 113 668.50 229.50Q584 346 532 494L532 40Q532-27 503.50-49.50Q475-72 387-79L325-84L300-10L376-4Q429 0 442.50 13Q456 26 456 70L456 802L532 799L532 667Q567 547 614 450Q668 491 728 551Q788 611 821 656L877 598Q842 555 774 491.50Q706 428 650 385M387 576L387 504Q337 242 92-11L29 40Q265 269 317 502L81 502L81 576L387 576Z"  horiz-adv-x="984" vert-adv-y="1000"  />

    
    <glyph glyph-name="uni70DF" unicode="&#x70DF;" d="M366 750L883 750L883-99L811-99L811-38L437-38L437-99L366-99L366 586Q332 506 272 417L246 431Q244 346 236 284Q265 240 302.50 174.50Q340 109 356 72L298 29Q275 92 221 192Q192 59 98-99L32-63Q113 68 144 168Q175 268 175 423L175 795L247 792L247 498Q292 570 313 626L366 600L366 750M437 34L811 34L811 678L437 678L437 34M163 373L95 349Q83 481 37 632L101 649Q118 597 137.50 510.50Q157 424 163 373M792 154L745 103Q699 197 625 293Q591 190 498 96L449 150Q514 211 545 274.50Q576 338 582 426Q582 432 583 436L468 436L468 505L585 505Q587 561 587 647L655 644Q655 617 653 505L777 505L777 436L650 436Q650 432 649.50 426Q649 420 649 417Q648 392 643 366Q711 293 792 154Z"  horiz-adv-x="984" vert-adv-y="1000"  />

    
    <glyph glyph-name="uni722C" unicode="&#x722C;" d="M446 470Q446 374 454 308.50Q462 243 484 188.50Q506 134 540 101Q574 68 632.50 43Q691 18 765.50 5Q840-8 948-16L932-90Q818-79 742.50-65.50Q667-52 601-25.50Q535 1 497 38.50Q459 76 431.50 136.50Q404 197 393.50 277Q383 357 383 471L383 694L322 682L322-72L258-72L258 672Q234 668 190 662L190 421Q190 306 174 207Q158 108 142 58Q126 8 92-81L27-46Q79 73 103 170.50Q127 268 127 424L127 725Q334 747 483 791L501 724L446 709L446 470M643 120Q584 125 558 152Q532 179 532 245L532 734L875 734L875 391L593 391L593 264Q593 222 606.50 206.50Q620 191 659 187Q721 181 783 187Q817 190 830.50 198Q844 206 850 227Q863 275 864 312L927 280Q922 236 907 187Q889 126 802 120Q722 114 643 120M674 669L593 669L593 457L674 457L674 669M813 457L813 669L732 669L732 457L813 457Z"  horiz-adv-x="984" vert-adv-y="1000"  />

    
    <glyph glyph-name="uni7978" unicode="&#x7978;" d="M250 411Q324 351 368 297L323 245Q294 289 248 333L248-96L180-96L180 307Q132 244 72 181L24 239Q186 408 252 566L74 566L74 637L196 637Q177 709 146 791L213 803Q240 733 266 637L325 637L325 562Q293 486 250 411M668 383L891 383L891 30Q891-36 865.50-59Q840-82 764-87L714-90L692-20L753-16Q798-13 811-1Q824 11 824 48L824 316L665 316Q662 283 656 254Q766 171 816 110L774 48Q736 103 638 193Q603 113 493 27L448 83Q527 142 559 190Q591 238 599 316L444 316L444-89L377-89L377 383L602 383L602 396L602 484L421 484L421 754L847 754L847 484L668 484L668 395L668 383M489 690L489 547L780 547L780 690L489 690Z"  horiz-adv-x="984" vert-adv-y="1000"  />

    
    <glyph glyph-name="uni7F6A" unicode="&#x7F6A;" d="M862 753L862 517L126 517L126 753L862 753M195 691L195 577L350 577L350 691L195 691M569 691L418 691L418 577L569 577L569 691M792 577L792 691L638 691L638 577L792 577M933 91L933 27L624 27L624-100L553-100L553 497L624 494L624 415L896 415L896 352L624 352L624 253L877 253L877 191L624 191L624 91L933 91M363 415L363 491L434 488L434-96L363-96L363 27L53 27L53 91L363 91L363 191L110 191L110 253L363 253L363 352L91 352L91 415L363 415Z"  horiz-adv-x="984" vert-adv-y="1000"  />

    
    <glyph glyph-name="uni7F8E" unicode="&#x7F8E;" d="M923 385L923 321L50 321L50 385L449 385L449 470L128 470L128 531L449 531L449 621L96 621L96 682L319 682Q268 744 236 773L287 817Q344 766 387 712L355 682L562 682Q630 752 673 825L732 785Q700 734 654 682L876 682L876 621L527 621L527 531L845 531L845 470L527 470L527 385L923 385M534 147Q636 12 938-35L904-110Q597-46 487 97Q391-43 62-108L33-33Q358 22 427 147L86 147L86 211L444 211Q447 241 447 293L527 290Q527 249 525 211L886 211L886 147L534 147Z"  horiz-adv-x="984" vert-adv-y="1000"  />

    
    <glyph glyph-name="uni80DC" unicode="&#x80DC;" d="M711 25L940 25L940-48L396-48L396 25L637 25L637 253L438 253L438 326L637 326L637 529L506 529Q484 441 454 358L386 380Q449 558 476 752L550 745Q536 656 524 603L637 603L637 800L711 798L711 603L914 603L914 529L711 529L711 326L893 326L893 253L711 253L711 25M121 377L121 748L373 748L373 17Q373-34 351.50-53Q330-72 269-78L229-82L208-8L254-4Q289-1 298.50 9Q308 19 308 50L308 225L184 225Q177 53 89-101L26-65Q63-2 81 44Q99 90 110 170.50Q121 251 121 377M308 676L185 676L185 514L308 514L308 676M185 292L308 292L308 446L185 446L185 292Z"  horiz-adv-x="984" vert-adv-y="1000"  />

    
    <glyph glyph-name="uni8981" unicode="&#x8981;" d="M348 588L348 687L87 687L87 752L886 752L886 687L625 687L625 588L841 588L841 365L132 365L132 588L348 588M556 588L556 687L416 687L416 588L556 588M203 527L203 427L348 427L348 527L203 527M416 527L416 427L556 427L556 527L416 527M770 527L625 527L625 427L770 427L770 527M732 208Q680 114 606 59Q713 26 869-24L849-97Q711-43 531 13Q401-50 100-93L73-22Q312 6 430 45Q293 86 200 111Q232 149 273 208L44 208L44 268L311 268Q343 323 362 363L438 342Q419 302 399 268L929 268L929 208L732 208M317 141Q436 109 521 84Q591 123 644 208L364 208Q340 170 317 141Z"  horiz-adv-x="984" vert-adv-y="1000"  />

    
    <glyph glyph-name="uni8BF4" unicode="&#x8BF4;" d="M880 130L948 107Q945 46 932-16Q925-47 901-61Q877-75 828-78Q782-81 737-78Q686-75 665-55Q644-35 644 17L644 267L536 267Q532 167 509 99.50Q486 32 444.50-14.50Q403-61 329-110L279-50Q350-5 386 31Q422 67 442.50 123Q463 179 465 267L358 267L358 599L490 599Q459 668 389 757L447 795Q525 695 552 644L495 599L630 599Q705 701 750 801L814 766Q781 695 717 599L849 599L849 267L716 267L716 43Q716 14 725.50 5.50Q735-3 764-6Q790-9 816-6Q845-3 855 4Q865 11 870 34Q878 72 880 130M283 612L225 559Q206 597 165.50 653Q125 709 96 741L154 782Q182 753 223 699Q264 645 283 612M429 529L429 336L778 336L778 529L429 529M339 181L359 97L226-13Q212-24 183-55L132 0Q162 33 162 63L162 405L42 405L42 478L233 478L233 85Q247 97 291 137.50Q335 178 339 181Z"  horiz-adv-x="984" vert-adv-y="1000"  />

    
    <glyph glyph-name="uni8EAB" unicode="&#x8EAB;" d="M939 378Q877 297 780 226L780 42Q780-29 746-56Q712-83 608-87L538-90L508-16L599-12Q667-10 686 5Q705 20 705 68L705 175Q469 28 65-75L33-2Q392 75 616 199L67 199L67 265L197 265L197 709L382 709Q412 763 430 813L513 798Q502 771 470 709L780 709L780 311Q845 365 893 425L939 378M705 644L272 644L272 561L705 561L705 644M705 413L705 497L272 497L272 413L705 413M272 349L272 265L705 265L705 349L272 349Z"  horiz-adv-x="984" vert-adv-y="1000"  />

    
    <glyph glyph-name="uni90FD" unicode="&#x90FD;" d="M566 720Q506 592 438 501L569 501L569 437L385 437Q340 388 285 340L493 340L493-56L154-56L154 240Q137 228 71 185L25 245Q187 341 289 437L63 437L63 501L242 501L242 624L94 624L94 686L242 686L242 800L307 797L307 686L431 686L431 624L307 624L307 501L350 501Q436 600 495 739L566 720M825 417Q879 342 899.50 287.50Q920 233 920 173Q920 92 889 61Q858 30 781 22L732 17L712 87L771 91Q816 95 833 114Q850 133 850 183Q850 284 751 404Q799 528 830 681L673 681L673-103L603-103L603 749L898 749L898 675Q869 532 825 417M430 172L430 276L218 276L218 172L430 172M218 7L430 7L430 112L218 112L218 7Z"  horiz-adv-x="984" vert-adv-y="1000"  />

    
    <glyph glyph-name="uni9152" unicode="&#x9152;" d="M69 735L109 792Q144 771 200.50 728Q257 685 286 656L244 588Q216 622 160.50 667.50Q105 713 69 735M935 686L704 686L704 566L882 566L882-91L815-91L815-42L380-42L380-91L312-91L312 566L481 566L481 686L283 686L283 754L935 754L935 686M639 566L639 686L547 686L547 566L639 566M84 573Q120 551 177.50 504Q235 457 266 425L221 356Q193 391 137 439.50Q81 488 41 516L84 573M481 498L380 498L380 192L815 192L815 280L727 280Q678 280 658.50 299Q639 318 639 376L639 498L547 498Q546 389 522 338.50Q498 288 428 233L386 283Q429 314 447.50 337.50Q466 361 473 395.50Q480 430 481 498M815 498L704 498L704 397Q704 366 713.50 355Q723 344 750 344L815 344L815 498M176 292L221 281L246 274Q234 204 200 92Q166-20 138-85L67-65Q95-1 129.50 111.50Q164 224 176 292M380 24L815 24L815 126L380 126L380 24Z"  horiz-adv-x="984" vert-adv-y="1000"  />

    
    <glyph glyph-name="uni91D1" unicode="&#x91D1;" d="M530 801Q600 708 710 630.50Q820 553 957 507L917 437Q795 485 679.50 565Q564 645 494 732Q362 563 73 431L29 496Q325 617 460 801L530 801M531 247L531 11L914 11L914-59L72-59L72 11L457 11L457 247L125 247L125 318L457 318L457 439L236 439L236 509L749 509L749 439L531 439L531 318L869 318L869 247L531 247M615 75Q643 100 684 151.50Q725 203 748 239L805 196Q784 161 740.50 107.50Q697 54 666 25L615 75M368 74L315 21Q295 58 253.50 110Q212 162 183 190L232 236Q260 210 303 159Q346 108 368 74Z"  horiz-adv-x="984" vert-adv-y="1000"  />

    
    <glyph glyph-name="uni94B1" unicode="&#x94B1;" d="M255 46Q270 55 318.50 84Q367 113 377 118L387 44Q323 12 245-33Q226-44 187-71L155-8Q187 13 187 42L187 243L43 243L43 310L187 310L187 438L103 438L103 494Q83 468 73 456L20 499Q76 566 126 650.50Q176 735 202 815L269 800Q251 745 220 682L411 682L411 615L184 615Q151 559 112 506L380 506L380 438L255 438L255 310L394 310L394 243L255 243L255 46M837 38Q860 93 871 140L928 97Q908 23 883-24Q851-85 784-85Q746-85 714.50-62Q683-39 643 22Q630 42 615 73Q528 19 424-23L389 44Q499 86 589 140Q560 225 543 335L398 316L393 382L533 400Q527 445 520 521L404 508L398 573L515 586L515 592L503 806L572 809Q578 688 584 594L896 630L901 565L590 529Q593 480 603 409L924 450L931 385L613 344Q628 251 651 179Q752 249 828 342L873 296Q782 187 675 113Q689 84 705 58Q747-6 784-6Q804-6 815.50 4Q827 14 837 38M765 626Q746 654 710 692Q674 730 648 751L690 793Q715 775 753 738.50Q791 702 810 677L765 626Z"  horiz-adv-x="984" vert-adv-y="1000"  />

    
    <glyph glyph-name="uni9AD8" unicode="&#x9AD8;" d="M539 716L931 716L931 656L57 656L57 716L466 716Q451 767 439 800L508 812Q516 790 539 716M214 584L774 584L774 401L214 401L214 584M699 454L699 531L288 531L288 454L699 454M122-91L122 335L865 335L865 27Q865-38 845-58.50Q825-79 759-85L686-92L663-23L734-17Q771-14 780.50-5.50Q790 3 790 35L790 277L196 277L196-91L122-91M679 212L679 21L309 21L309 212L679 212M607 77L607 156L381 156L381 77L607 77Z"  horiz-adv-x="984" vert-adv-y="1000"  />

    
    <glyph glyph-name="uniFF0C" unicode="&#xFF0C;" d="M136-136Q178-72 204 0Q230 72 230 127L313 127Q313 67 280.50-7Q248-81 207-136L136-136Z"  horiz-adv-x="984" vert-adv-y="1000"  />

    

  </font>
</defs>
</svg>
